<svg width="25" height="25" viewBox="0 0 25 25" fill="none" xmlns="http://www.w3.org/2000/svg">
<path d="M14.53 22.4352C13.35 22.4352 11.68 21.6052 10.36 17.6352L9.63994 15.4752L7.47994 14.7552C3.51994 13.4352 2.68994 11.7652 2.68994 10.5852C2.68994 9.41525 3.51994 7.73525 7.47994 6.40525L15.97 3.57525C18.09 2.86525 19.86 3.07525 20.95 4.15525C22.04 5.23525 22.25 7.01525 21.54 9.13525L18.71 17.6252C17.38 21.6052 15.71 22.4352 14.53 22.4352ZM7.94994 7.83525C5.16994 8.76525 4.17994 9.86525 4.17994 10.5852C4.17994 11.3052 5.16994 12.4052 7.94994 13.3252L10.47 14.1652C10.69 14.2352 10.87 14.4152 10.94 14.6352L11.78 17.1552C12.7 19.9352 13.81 20.9252 14.53 20.9252C15.25 20.9252 16.35 19.9352 17.28 17.1552L20.11 8.66525C20.62 7.12525 20.53 5.86525 19.88 5.21525C19.23 4.56525 17.97 4.48525 16.44 4.99525L7.94994 7.83525Z" fill="white"/>
<path d="M10.4201 15.2052C10.2301 15.2052 10.0401 15.1352 9.89011 14.9852C9.60011 14.6952 9.60011 14.2152 9.89011 13.9252L13.4701 10.3352C13.7601 10.0452 14.2401 10.0452 14.5301 10.3352C14.8201 10.6252 14.8201 11.1052 14.5301 11.3952L10.9501 14.9852C10.8101 15.1352 10.6101 15.2052 10.4201 15.2052Z" fill="white"/>
</svg>
