<svg width="24" height="26" viewBox="0 0 24 26" fill="none" xmlns="http://www.w3.org/2000/svg">
<path d="M19.9922 7H16.9922V5.00781C16.9922 4.44531 16.7969 3.96875 16.4062 3.57812C16.0156 3.1875 15.5469 2.99219 15 2.99219H9C8.45312 2.99219 7.98438 3.1875 7.59375 3.57812C7.20312 3.96875 7.00781 4.44531 7.00781 5.00781V7H4.00781C3.44531 7 2.96875 7.19531 2.57812 7.58594C2.1875 7.97656 1.99219 8.44531 1.99219 8.99219V20.0078C1.99219 20.5547 2.1875 21.0234 2.57812 21.4141C2.96875 21.8047 3.44531 22 4.00781 22H19.9922C20.5547 22 21.0312 21.8047 21.4219 21.4141C21.8125 21.0234 22.0078 20.5547 22.0078 20.0078V8.99219C22.0078 8.44531 21.8125 7.97656 21.4219 7.58594C21.0312 7.19531 20.5547 7 19.9922 7ZM16.0078 8.99219V20.0078H7.99219V8.99219H16.0078ZM15 5.00781V7H9V5.00781H15ZM4.00781 8.99219H6V20.0078H4.00781V8.99219ZM18 20.0078V8.99219H19.9922V20.0078H18Z" fill="#333333"/>
</svg>
