<svg width="29" height="30" viewBox="0 0 29 30" fill="none" xmlns="http://www.w3.org/2000/svg">
<path d="M22.8225 8.68481H19.2213V7.47521C19.2213 6.82241 19.058 6.22241 18.7315 5.67521C18.405 5.12802 17.968 4.69122 17.4207 4.36481C16.8733 4.03841 16.2731 3.87522 15.62 3.87522H13.2C12.547 3.87522 11.9468 4.03841 11.3994 4.36481C10.852 4.69122 10.415 5.12802 10.0885 5.67521C9.762 6.22241 9.59874 6.82241 9.59874 7.47521V8.68481H5.99749C5.34446 8.68481 4.74425 8.84801 4.19686 9.17442C3.64948 9.50081 3.21252 9.93761 2.88601 10.4848C2.5595 11.032 2.39624 11.632 2.39624 12.2848V23.0848C2.39624 23.7376 2.5595 24.3376 2.88601 24.8848C3.21252 25.432 3.64948 25.8688 4.19686 26.1952C4.74425 26.5216 5.34446 26.6848 5.99749 26.6848H22.8225C23.4756 26.6848 24.0758 26.5216 24.6232 26.1952C25.1705 25.8688 25.6075 25.432 25.934 24.8848C26.2605 24.3376 26.4238 23.7376 26.4238 23.0848V12.2848C26.4238 11.632 26.2605 11.032 25.934 10.4848C25.6075 9.93761 25.1705 9.50081 24.6232 9.17442C24.0758 8.84801 23.4756 8.68481 22.8225 8.68481ZM12.0188 7.47521C12.0188 7.14882 12.134 6.86561 12.3645 6.62561C12.595 6.38561 12.8735 6.26562 13.2 6.26562H15.62C15.9465 6.26562 16.225 6.38561 16.4555 6.62561C16.686 6.86561 16.8012 7.14882 16.8012 7.47521V8.68481H12.0188V7.47521ZM24.0037 23.0848C24.0037 23.4112 23.8885 23.6896 23.658 23.92C23.4275 24.1504 23.149 24.2656 22.8225 24.2656H5.99749C5.67098 24.2656 5.39248 24.1504 5.162 23.92C4.93152 23.6896 4.81628 23.4112 4.81628 23.0848V16.4896C5.98789 16.9504 7.1883 17.3248 8.41753 17.6128V18.304C8.45594 18.592 8.59039 18.8368 8.82087 19.0384C9.05135 19.24 9.31544 19.3408 9.61314 19.3408C9.91085 19.3408 10.1749 19.24 10.4054 19.0384C10.6359 18.8368 10.7703 18.592 10.8088 18.304V18.0736C11.9996 18.2272 13.2 18.304 14.41 18.304C15.62 18.304 16.8204 18.2272 18.0113 18.0736V18.304C18.0497 18.592 18.1841 18.8368 18.4146 19.0384C18.6451 19.24 18.9092 19.3408 19.2069 19.3408C19.5046 19.3408 19.7687 19.24 19.9991 19.0384C20.2296 18.8368 20.3641 18.592 20.4025 18.304V17.6128C21.6317 17.3248 22.8321 16.9504 24.0037 16.4896V23.0848ZM24.0037 13.84C22.8321 14.3392 21.6317 14.7424 20.4025 15.0496V14.6752C20.3641 14.3872 20.2296 14.1424 19.9991 13.9408C19.7687 13.7392 19.5046 13.6384 19.2069 13.6384C18.9092 13.6384 18.6451 13.7392 18.4146 13.9408C18.1841 14.1424 18.0497 14.3872 18.0113 14.6752V15.568C15.6104 15.9328 13.2096 15.9328 10.8088 15.568V14.6752C10.7703 14.3872 10.6359 14.1424 10.4054 13.9408C10.1749 13.7392 9.91085 13.6384 9.61314 13.6384C9.31544 13.6384 9.05135 13.7392 8.82087 13.9408C8.59039 14.1424 8.45594 14.3872 8.41753 14.6752V15.0784C7.1883 14.7712 5.98789 14.368 4.81628 13.8688V12.2848C4.81628 11.9584 4.93152 11.6752 5.162 11.4352C5.39248 11.1952 5.67098 11.0752 5.99749 11.0752H22.8225C23.149 11.0752 23.4275 11.1952 23.658 11.4352C23.8885 11.6752 24.0037 11.9584 24.0037 12.2848V13.84Z" fill="black"/>
</svg>
