<svg width="16" height="17" viewBox="0 0 16 17" fill="none" xmlns="http://www.w3.org/2000/svg">
<path d="M2.6875 11.1924C2.67708 11.2445 2.67188 11.3018 2.67188 11.3643C2.67188 11.4268 2.67188 11.4893 2.67188 11.5518C2.67188 12.3434 2.97396 13.0075 3.57812 13.5439C4.18229 14.0804 4.88542 14.2965 5.6875 14.1924C5.91667 14.5986 6.23698 14.9268 6.64844 15.1768C7.0599 15.4268 7.51042 15.5518 8 15.5518C8.48958 15.5518 8.9401 15.4268 9.35156 15.1768C9.76302 14.9268 10.0833 14.5986 10.3125 14.1924C11.1146 14.2965 11.8177 14.0804 12.4219 13.5439C13.026 13.0075 13.3281 12.3434 13.3281 11.5518C13.3281 11.4893 13.3281 11.4294 13.3281 11.3721C13.3281 11.3148 13.3229 11.2549 13.3125 11.1924C13.7188 10.9632 14.0469 10.6429 14.2969 10.2314C14.5469 9.81999 14.6719 9.36947 14.6719 8.87988C14.6719 8.3903 14.5469 7.93978 14.2969 7.52832C14.0469 7.11686 13.7188 6.79655 13.3125 6.56738C13.3229 6.50488 13.3281 6.44499 13.3281 6.3877C13.3281 6.3304 13.3281 6.27051 13.3281 6.20801C13.3281 5.41634 13.026 4.75228 12.4219 4.21582C11.8177 3.67936 11.1146 3.46322 10.3125 3.56738C10.0833 3.16113 9.76302 2.83301 9.35156 2.58301C8.9401 2.33301 8.48958 2.20801 8 2.20801C7.51042 2.20801 7.0599 2.33301 6.64844 2.58301C6.23698 2.83301 5.91667 3.16113 5.6875 3.56738C4.88542 3.46322 4.18229 3.67936 3.57812 4.21582C2.97396 4.75228 2.67188 5.41634 2.67188 6.20801C2.67188 6.27051 2.67188 6.3304 2.67188 6.3877C2.67188 6.44499 2.67708 6.50488 2.6875 6.56738C2.28125 6.79655 1.95312 7.11686 1.70312 7.52832C1.45312 7.93978 1.32812 8.3903 1.32812 8.87988C1.32812 9.36947 1.45312 9.81999 1.70312 10.2314C1.95312 10.6429 2.28125 10.9632 2.6875 11.1924ZM3.65625 7.59863L4.39062 7.39551L4.09375 6.69238C4.0625 6.62988 4.03906 6.55697 4.02344 6.47363C4.00781 6.3903 4 6.30176 4 6.20801C4 5.84342 4.13021 5.53092 4.39062 5.27051C4.65104 5.01009 4.96354 4.87988 5.32812 4.87988C5.41146 4.87988 5.49479 4.8877 5.57812 4.90332C5.66146 4.91895 5.73958 4.94238 5.8125 4.97363L6.51562 5.27051L6.71875 4.53613C6.79167 4.24447 6.94792 4.00749 7.1875 3.8252C7.42708 3.6429 7.69792 3.55176 8 3.55176C8.30208 3.55176 8.57292 3.6429 8.8125 3.8252C9.05208 4.00749 9.20833 4.23926 9.28125 4.52051V4.53613L9.48438 5.27051L10.1875 4.97363C10.2604 4.94238 10.3385 4.91895 10.4219 4.90332C10.5052 4.8877 10.5885 4.87988 10.6719 4.87988C11.0365 4.87988 11.349 5.01009 11.6094 5.27051C11.8698 5.53092 12 5.84342 12 6.20801C12 6.29134 11.9922 6.37467 11.9766 6.45801C11.9609 6.54134 11.9375 6.61947 11.9062 6.69238L11.6094 7.39551L12.3438 7.59863C12.6354 7.67155 12.8724 7.8278 13.0547 8.06738C13.237 8.30697 13.3281 8.5778 13.3281 8.87988C13.3281 9.18197 13.237 9.4502 13.0547 9.68457C12.8724 9.91895 12.6406 10.0778 12.3594 10.1611H12.3438L11.6094 10.3643L11.9062 11.0674C11.9375 11.1403 11.9609 11.2184 11.9766 11.3018C11.9922 11.3851 12 11.4684 12 11.5518C12 11.9163 11.8698 12.2288 11.6094 12.4893C11.349 12.7497 11.0365 12.8799 10.6719 12.8799C10.5885 12.8799 10.5052 12.8721 10.4219 12.8564C10.3385 12.8408 10.2604 12.8174 10.1875 12.7861L9.48438 12.4893L9.28125 13.2236C9.20833 13.5153 9.05208 13.7523 8.8125 13.9346C8.57292 14.1169 8.30208 14.208 8 14.208C7.69792 14.208 7.42708 14.1169 7.1875 13.9346C6.94792 13.7523 6.79167 13.5205 6.71875 13.2393V13.2236L6.51562 12.4893L5.8125 12.7861C5.75 12.8174 5.67708 12.8408 5.59375 12.8564C5.51042 12.8721 5.42188 12.8799 5.32812 12.8799C4.96354 12.8799 4.65104 12.7497 4.39062 12.4893C4.13021 12.2288 4 11.9163 4 11.5518C4 11.4684 4.00781 11.3851 4.02344 11.3018C4.03906 11.2184 4.0625 11.1403 4.09375 11.0674L4.39062 10.3643L3.65625 10.1611C3.36458 10.0882 3.1276 9.93197 2.94531 9.69238C2.76302 9.4528 2.67188 9.18197 2.67188 8.87988C2.67188 8.5778 2.76302 8.30957 2.94531 8.0752C3.1276 7.84082 3.35938 7.68197 3.64062 7.59863H3.65625ZM10.5 8.02051L9.5625 7.06738L7.32812 9.27051L6.46875 8.41113L5.53125 9.34863L7.32812 11.1611L10.5 8.02051Z" fill="#333333"/>
</svg>
