<svg width="32" height="33" viewBox="0 0 32 33" fill="none" xmlns="http://www.w3.org/2000/svg">
<path d="M26.6562 5.72363H8C7.27083 5.72363 6.64583 5.98405 6.125 6.50488C5.60417 7.02572 5.34375 7.65072 5.34375 8.37988V15.0361H8V11.0361L16.5312 17.4424C16.6354 17.5257 16.7552 17.5934 16.8906 17.6455C17.026 17.6976 17.1771 17.7236 17.3438 17.7236C17.4896 17.7236 17.6302 17.6976 17.7656 17.6455C17.901 17.5934 18.0208 17.5257 18.125 17.4424L26.6562 11.0361V23.0361H16V25.7236H26.6562C27.4062 25.7236 28.0417 25.4632 28.5625 24.9424C29.0833 24.4215 29.3438 23.7861 29.3438 23.0361V8.37988C29.3438 7.65072 29.0833 7.02572 28.5625 6.50488C28.0417 5.98405 27.4062 5.72363 26.6562 5.72363ZM17.3438 14.7236L8.875 8.37988H25.7812L17.3438 14.7236ZM2.65625 16.3799H12V19.0361H2.65625V16.3799ZM5.34375 20.3799H13.3438V23.0361H5.34375V20.3799ZM9.34375 24.3799H14.6562V27.0361H9.34375V24.3799Z" fill="#333333"/>
</svg>
