<svg width="174" height="109" viewBox="0 0 174 109" fill="none" xmlns="http://www.w3.org/2000/svg">
<rect width="174" height="109" fill="black"/>
<path d="M65.6454 43.0504H52.8384C52.069 43.0499 51.3156 43.2594 50.6678 43.6542C50.02 44.0489 49.5051 44.6122 49.1843 45.2772L48.0663 47.5932H58.1639L49.3609 66.7157H52.2686C53.0535 66.7156 53.8213 66.4969 54.477 66.0866C55.1327 65.6763 55.6477 65.0924 55.9584 64.4071L65.6454 43.0504Z" fill="white"/>
<path d="M63.579 51.8986L60.901 57.8046L63.9818 64.4385C64.2967 65.116 64.8118 65.692 65.4645 66.0964C66.1173 66.5008 66.8795 66.7163 67.6586 66.7165H70.595L63.579 51.8986Z" fill="white"/>
<path d="M86.9758 52.4308C86.936 52.0146 86.7588 51.6911 86.4443 51.4603C86.1337 51.2257 85.6898 51.1084 85.1125 51.1084C84.7303 51.1084 84.4118 51.1557 84.157 51.2503C83.9022 51.3448 83.7111 51.4754 83.5837 51.6419C83.4563 51.8046 83.3906 51.9919 83.3866 52.2037C83.3787 52.3778 83.4145 52.531 83.4941 52.6635C83.5777 52.7959 83.6972 52.9132 83.8525 53.0153C84.0117 53.1137 84.2028 53.2007 84.4258 53.2764C84.6487 53.3521 84.8995 53.4183 85.1782 53.4751L86.2293 53.7021C86.8345 53.8269 87.368 53.9934 87.8298 54.2015C88.2956 54.4096 88.6858 54.6575 89.0003 54.945C89.3188 55.2326 89.5597 55.5637 89.7229 55.9382C89.8861 56.3128 89.9697 56.7328 89.9737 57.1982C89.9697 57.9323 89.7747 58.5622 89.3885 59.0882C89.0023 59.6141 88.4469 60.0171 87.7223 60.2971C87.0017 60.5771 86.1318 60.7171 85.1125 60.7171C84.0893 60.7171 83.1975 60.5714 82.4371 60.28C81.6767 59.9887 81.0854 59.546 80.6634 58.952C80.2414 58.3579 80.0244 57.6069 80.0125 56.6988H82.8432C82.8671 57.0734 82.9726 57.3855 83.1597 57.6352C83.3468 57.885 83.6036 58.0741 83.9301 58.2028C84.2605 58.3314 84.6427 58.3958 85.0767 58.3958C85.4748 58.3958 85.8132 58.3447 86.0919 58.2425C86.3746 58.1404 86.5916 57.9985 86.7429 57.8169C86.8942 57.6352 86.9718 57.4271 86.9758 57.1925C86.9718 56.9731 86.9001 56.7858 86.7608 56.6307C86.6215 56.4718 86.4065 56.3355 86.1158 56.222C85.8292 56.1047 85.4629 55.9969 85.017 55.8985L83.739 55.6147C82.68 55.3839 81.8459 55.0112 81.2367 54.4967C80.6276 53.9783 80.325 53.2783 80.329 52.3967C80.325 51.6778 80.5281 51.0478 80.9381 50.5068C81.3482 49.9657 81.9155 49.5438 82.6401 49.2411C83.3647 48.9384 84.1909 48.7871 85.1185 48.7871C86.0661 48.7871 86.8882 48.9403 87.5849 49.2468C88.2856 49.5495 88.8291 49.9752 89.2153 50.5238C89.6015 51.0724 89.7985 51.7081 89.8065 52.4308H86.9758Z" fill="white"/>
<path d="M91.4667 60.5695V48.946H99.9947V51.2276H94.4228V53.6113H99.5587V55.8985H94.4228V58.2879H99.9947V60.5695H91.4667Z" fill="white"/>
<path d="M104.623 48.946L107.358 57.4593H107.46L110.195 48.946H113.503L109.377 60.5695H105.441L101.315 48.946H104.623Z" fill="white"/>
<path d="M125.229 48.946V60.5695H122.721L117.854 53.861H117.776V60.5695H114.82V48.946H117.364L122.178 55.6431H122.279V48.946H125.229Z" fill="white"/>
</svg>
