<svg width="17" height="17" viewBox="0 0 17 17" fill="none" xmlns="http://www.w3.org/2000/svg">
<path d="M12.2206 8.02006C12.0927 7.89206 11.9355 7.82806 11.7489 7.82806C11.5624 7.82806 11.4051 7.89206 11.2772 8.02006L9.08657 10.2281V5.17206C9.08657 4.99072 9.01994 4.83339 8.88669 4.70006C8.75344 4.56672 8.59621 4.50006 8.41499 4.50006C8.23377 4.50006 8.07653 4.56672 7.94328 4.70006C7.81003 4.83339 7.7434 4.99072 7.7434 5.17206V10.2281L5.55277 8.02006C5.42485 7.89206 5.26762 7.82806 5.08107 7.82806C4.89452 7.82806 4.73462 7.89472 4.60137 8.02806C4.46812 8.16139 4.40416 8.32139 4.40949 8.50806C4.41482 8.69472 4.48144 8.85206 4.60936 8.98006L7.93529 12.3081C7.99925 12.3721 8.07387 12.4201 8.15915 12.4521C8.32971 12.5267 8.50027 12.5267 8.67083 12.4521C8.75611 12.4201 8.83073 12.3721 8.89469 12.3081L12.2206 8.98006C12.3592 8.85206 12.4285 8.69206 12.4285 8.50006C12.4285 8.30806 12.3592 8.14806 12.2206 8.02006Z" fill="#333333"/>
</svg>
