<svg width="14" height="15" viewBox="0 0 14 15" fill="none" xmlns="http://www.w3.org/2000/svg">
<path d="M7.00011 11.968C7.15878 11.968 7.29644 11.9097 7.41311 11.793C7.52978 11.6763 7.58811 11.5387 7.58811 11.38C7.58811 11.2213 7.52978 11.0837 7.41311 10.967C7.29644 10.8503 7.15878 10.792 7.00011 10.792C6.84144 10.792 6.70378 10.8503 6.58711 10.967C6.47044 11.0837 6.41211 11.2213 6.41211 11.38C6.41211 11.5387 6.47044 11.6763 6.58711 11.793C6.70378 11.9097 6.84144 11.968 7.00011 11.968ZM9.91211 11.968C10.0334 11.968 10.1431 11.9377 10.2411 11.877C10.3391 11.8163 10.4138 11.73 10.4651 11.618C10.5164 11.506 10.5304 11.3917 10.5071 11.275C10.4838 11.1583 10.4301 11.058 10.3461 10.974C10.2621 10.89 10.1618 10.834 10.0451 10.806C9.92844 10.778 9.81411 10.7873 9.70211 10.834C9.59011 10.8807 9.50144 10.953 9.43611 11.051C9.37078 11.149 9.33811 11.2587 9.33811 11.38C9.33811 11.5387 9.39411 11.6763 9.50611 11.793C9.61811 11.9097 9.75344 11.968 9.91211 11.968ZM9.91211 9.62999C10.0334 9.62999 10.1431 9.59966 10.2411 9.53899C10.3391 9.47833 10.4138 9.39199 10.4651 9.27999C10.5164 9.16799 10.5304 9.05366 10.5071 8.93699C10.4838 8.82033 10.4301 8.71999 10.3461 8.63599C10.2621 8.55199 10.1618 8.49599 10.0451 8.46799C9.92844 8.43999 9.81411 8.44933 9.70211 8.49599C9.59011 8.54266 9.50144 8.61499 9.43611 8.71299C9.37078 8.81099 9.33811 8.92066 9.33811 9.04199C9.33811 9.20066 9.39411 9.33833 9.50611 9.45499C9.61811 9.57166 9.75344 9.62999 9.91211 9.62999ZM7.00011 9.62999C7.15878 9.62999 7.29644 9.57166 7.41311 9.45499C7.52978 9.33833 7.58811 9.20066 7.58811 9.04199C7.58811 8.88333 7.52978 8.74566 7.41311 8.62899C7.29644 8.51233 7.15878 8.45399 7.00011 8.45399C6.84144 8.45399 6.70378 8.51233 6.58711 8.62899C6.47044 8.74566 6.41211 8.88333 6.41211 9.04199C6.41211 9.20066 6.47044 9.33833 6.58711 9.45499C6.70378 9.57166 6.84144 9.62999 7.00011 9.62999ZM11.0881 2.62999H10.5001V2.04199C10.4814 1.90199 10.4161 1.78299 10.3041 1.68499C10.1921 1.58699 10.0638 1.53799 9.91911 1.53799C9.77444 1.53799 9.64611 1.58699 9.53411 1.68499C9.42211 1.78299 9.35678 1.90199 9.33811 2.04199V2.62999H4.66211V2.04199C4.64344 1.90199 4.57811 1.78299 4.46611 1.68499C4.35411 1.58699 4.22578 1.53799 4.08111 1.53799C3.93644 1.53799 3.80811 1.58699 3.69611 1.68499C3.58411 1.78299 3.51878 1.90199 3.50011 2.04199V2.62999H2.91211C2.59478 2.62999 2.30311 2.70932 2.03711 2.86799C1.77111 3.02666 1.55878 3.23899 1.40011 3.50499C1.24144 3.77099 1.16211 4.06266 1.16211 4.37999V12.542C1.16211 12.8593 1.24144 13.151 1.40011 13.417C1.55878 13.683 1.77111 13.8953 2.03711 14.054C2.30311 14.2127 2.59478 14.292 2.91211 14.292H11.0881C11.4054 14.292 11.6971 14.2127 11.9631 14.054C12.2291 13.8953 12.4414 13.683 12.6001 13.417C12.7588 13.151 12.8381 12.8593 12.8381 12.542V4.37999C12.8381 4.06266 12.7588 3.77099 12.6001 3.50499C12.4414 3.23899 12.2291 3.02666 11.9631 2.86799C11.6971 2.70932 11.4054 2.62999 11.0881 2.62999ZM11.6621 12.542C11.6621 12.7007 11.6061 12.8383 11.4941 12.955C11.3821 13.0717 11.2468 13.13 11.0881 13.13H2.91211C2.75344 13.13 2.61811 13.0717 2.50611 12.955C2.39411 12.8383 2.33811 12.7007 2.33811 12.542V7.29199H11.6621V12.542ZM11.6621 6.12999H2.33811V4.37999C2.33811 4.22132 2.39411 4.08366 2.50611 3.96699C2.61811 3.85033 2.75344 3.79199 2.91211 3.79199H3.50011V4.37999C3.51878 4.51999 3.58411 4.63899 3.69611 4.73699C3.80811 4.83499 3.93644 4.88399 4.08111 4.88399C4.22578 4.88399 4.35411 4.83499 4.46611 4.73699C4.57811 4.63899 4.64344 4.51999 4.66211 4.37999V3.79199H9.33811V4.37999C9.35678 4.51999 9.42211 4.63899 9.53411 4.73699C9.64611 4.83499 9.77444 4.88399 9.91911 4.88399C10.0638 4.88399 10.1921 4.83499 10.3041 4.73699C10.4161 4.63899 10.4814 4.51999 10.5001 4.37999V3.79199H11.0881C11.2468 3.79199 11.3821 3.85033 11.4941 3.96699C11.6061 4.08366 11.6621 4.22132 11.6621 4.37999V6.12999ZM4.08811 9.62999C4.24678 9.62999 4.38444 9.57166 4.50111 9.45499C4.61778 9.33833 4.67611 9.20066 4.67611 9.04199C4.67611 8.88333 4.61778 8.74566 4.50111 8.62899C4.38444 8.51233 4.24678 8.45399 4.08811 8.45399C3.92944 8.45399 3.79178 8.51233 3.67511 8.62899C3.55844 8.74566 3.50011 8.88333 3.50011 9.04199C3.50011 9.20066 3.55844 9.33833 3.67511 9.45499C3.79178 9.57166 3.92944 9.62999 4.08811 9.62999ZM4.08811 11.968C4.24678 11.968 4.38444 11.9097 4.50111 11.793C4.61778 11.6763 4.67611 11.5387 4.67611 11.38C4.67611 11.2213 4.61778 11.0837 4.50111 10.967C4.38444 10.8503 4.24678 10.792 4.08811 10.792C3.92944 10.792 3.79178 10.8503 3.67511 10.967C3.55844 11.0837 3.50011 11.2213 3.50011 11.38C3.50011 11.5387 3.55844 11.6763 3.67511 11.793C3.79178 11.9097 3.92944 11.968 4.08811 11.968Z" fill="#757575"/>
</svg>
