<svg width="20" height="20" viewBox="0 0 20 20" fill="none" xmlns="http://www.w3.org/2000/svg">
<path d="M8.40007 17.0801C8.40007 16.8134 8.29674 16.5967 8.09007 16.4301C7.88341 16.2634 7.65341 16.2067 7.40007 16.2601C6.73341 16.3801 6.17341 16.4001 5.72007 16.3201C5.12007 16.2134 4.74007 15.9267 4.58007 15.4601C4.24674 14.6467 3.73341 13.9801 3.04007 13.4601C2.98674 13.4334 2.94007 13.4001 2.90007 13.3601C2.83341 13.2001 2.73007 13.0701 2.59007 12.9701C2.45007 12.8701 2.29341 12.8201 2.12007 12.8201C1.89341 12.8201 1.70007 12.9034 1.54007 13.0701C1.38007 13.2367 1.30007 13.4334 1.30007 13.6601C1.28674 13.9534 1.40674 14.2334 1.66007 14.5001C1.82007 14.6734 2.01341 14.8134 2.24007 14.9201C2.57341 15.2534 2.83341 15.6334 3.02007 16.0601C3.22007 16.6334 3.56007 17.0867 4.04007 17.4201C4.72007 17.9001 5.62007 18.1067 6.74007 18.0401V18.3401C6.76674 18.5401 6.86007 18.7101 7.02007 18.8501C7.18007 18.9901 7.36341 19.0601 7.57007 19.0601C7.77674 19.0601 7.96007 18.9901 8.12007 18.8501C8.28007 18.7101 8.3734 18.5401 8.40007 18.3401V17.0801ZM17.2801 4.48005C17.2801 4.45339 17.2934 4.40672 17.3201 4.34005L17.3601 4.14005C17.4934 3.19339 17.3801 2.27339 17.0201 1.38005C16.9267 1.14005 16.7534 0.980055 16.5001 0.900055C16.2201 0.806721 15.8667 0.800055 15.4401 0.880054C14.7334 1.01339 13.9267 1.36672 13.0201 1.94005C11.2601 1.52672 9.49341 1.52672 7.72007 1.94005C6.82674 1.36672 6.02674 1.01339 5.32007 0.880054C4.86674 0.800055 4.51341 0.803387 4.26007 0.890055C4.00674 0.976721 3.82674 1.14005 3.72007 1.38005C3.34674 2.28672 3.23341 3.22005 3.38007 4.18005C3.40674 4.24672 3.43341 4.34672 3.46007 4.48005C3.11341 4.93339 2.85007 5.43339 2.67007 5.98005C2.49007 6.52672 2.40007 7.08672 2.40007 7.66005C2.40007 7.92672 2.41341 8.18672 2.44007 8.44005C2.56007 10.1467 3.13341 11.4734 4.16007 12.4201C4.88007 13.0867 5.81341 13.5534 6.96007 13.8201C6.92007 13.9267 6.88674 14.0401 6.86007 14.1601C6.83341 14.3734 6.88007 14.5667 7.00007 14.7401C7.12007 14.9134 7.28341 15.0267 7.49007 15.0801C7.69674 15.1334 7.89341 15.1101 8.08007 15.0101C8.26674 14.9101 8.40007 14.7601 8.48007 14.5601C8.53341 14.2667 8.66674 14.0201 8.88007 13.8201C9.00007 13.7134 9.08341 13.5801 9.13007 13.4201C9.17674 13.2601 9.17341 13.1001 9.12007 12.9401C9.06674 12.7801 8.97674 12.6467 8.85007 12.5401C8.72341 12.4334 8.58007 12.3734 8.42007 12.3601C6.98007 12.2001 5.92674 11.8034 5.26007 11.1701C4.59341 10.5367 4.20674 9.57339 4.10007 8.28005C4.08674 8.08005 4.08007 7.87339 4.08007 7.66005C4.06674 7.24672 4.12674 6.84672 4.26007 6.46005C4.39341 6.07339 4.58674 5.72005 4.84007 5.40005L5.00007 5.22005C5.10674 5.10005 5.17341 4.96339 5.20007 4.81005C5.22674 4.65672 5.21341 4.50672 5.16007 4.36005C5.10674 4.21339 5.06674 4.06005 5.04007 3.90005C4.97341 3.44672 4.99341 3.00005 5.10007 2.56005C5.83341 2.76005 6.50674 3.08672 7.12007 3.54005C7.33341 3.67339 7.56007 3.70672 7.80007 3.64005C8.64007 3.41339 9.49674 3.30005 10.3701 3.30005C11.2434 3.30005 12.1001 3.41339 12.9401 3.64005C13.1934 3.72005 13.4267 3.68672 13.6401 3.54005C14.2534 3.08672 14.9201 2.75339 15.6401 2.54005C15.7601 2.98005 15.7867 3.42005 15.7201 3.86005C15.6934 4.03339 15.6501 4.19672 15.5901 4.35005C15.5301 4.50339 15.5101 4.65672 15.5301 4.81005C15.5501 4.96339 15.6134 5.10005 15.7201 5.22005C15.7734 5.26005 15.8401 5.33339 15.9201 5.44005C16.1734 5.76005 16.3634 6.11005 16.4901 6.49005C16.6167 6.87005 16.6734 7.26005 16.6601 7.66005C16.6601 7.88672 16.6534 8.10672 16.6401 8.32005C16.5467 9.58672 16.1634 10.5367 15.4901 11.1701C14.8167 11.8034 13.7534 12.2001 12.3001 12.3601C12.1401 12.3867 11.9967 12.4534 11.8701 12.5601C11.7434 12.6667 11.6567 12.7967 11.6101 12.9501C11.5634 13.1034 11.5634 13.2601 11.6101 13.4201C11.6567 13.5801 11.7401 13.7134 11.8601 13.8201C12.0734 14.0334 12.2001 14.2867 12.2401 14.5801C12.2934 14.8067 12.3201 15.0334 12.3201 15.2601V17.2001C12.3067 17.5601 12.3001 17.9401 12.3001 18.3401C12.3001 18.5667 12.3834 18.7634 12.5501 18.9301C12.7167 19.0967 12.9134 19.1801 13.1401 19.1801C13.3667 19.1801 13.5634 19.0967 13.7301 18.9301C13.8967 18.7634 13.9801 18.5667 13.9801 18.3401V15.2601C13.9934 14.8867 13.9534 14.5201 13.8601 14.1601C13.8334 14.0401 13.8001 13.9267 13.7601 13.8201C14.6267 13.6734 15.4034 13.3467 16.0901 12.8401C16.7767 12.3334 17.3167 11.6967 17.7101 10.9301C18.1034 10.1634 18.3001 9.34005 18.3001 8.46005C18.3267 8.19339 18.3401 7.92672 18.3401 7.66005C18.3534 7.08672 18.2667 6.52672 18.0801 5.98005C17.8934 5.43339 17.6267 4.93339 17.2801 4.48005Z" fill="#333333"/>
</svg>
