<svg width="20" height="20" viewBox="0 0 20 20" fill="none" xmlns="http://www.w3.org/2000/svg">
<path d="M14.58 7.50003C13.82 7.50003 13.1066 7.68003 12.44 8.04003C12.3733 7.88003 12.27 7.75003 12.13 7.65003C11.99 7.55003 11.8333 7.50003 11.66 7.50003H8.33998C8.11331 7.50003 7.91665 7.58337 7.74998 7.75003C7.58331 7.9167 7.49998 8.11337 7.49998 8.34003V18.34C7.49998 18.5667 7.58331 18.76 7.74998 18.92C7.91665 19.08 8.11331 19.16 8.33998 19.16H11.66C11.8866 19.16 12.0833 19.08 12.25 18.92C12.4166 18.76 12.5 18.5667 12.5 18.34V13.74C12.4733 13.58 12.4933 13.4234 12.56 13.27C12.6266 13.1167 12.73 12.9967 12.87 12.91C13.01 12.8234 13.1633 12.78 13.33 12.78C13.4966 12.78 13.65 12.8234 13.79 12.91C13.93 12.9967 14.0333 13.1167 14.1 13.27C14.1666 13.4234 14.1866 13.58 14.16 13.74V18.34C14.16 18.5667 14.2433 18.76 14.41 18.92C14.5766 19.08 14.7733 19.16 15 19.16H18.34C18.5666 19.16 18.76 19.08 18.92 18.92C19.08 18.76 19.16 18.5667 19.16 18.34V12.08C19.16 11.2534 18.9533 10.49 18.54 9.79003C18.1266 9.09003 17.57 8.53337 16.87 8.12003C16.17 7.7067 15.4066 7.50003 14.58 7.50003ZM17.5 17.5H15.84V13.74C15.84 13.2867 15.7266 12.87 15.5 12.49C15.2733 12.11 14.97 11.8067 14.59 11.58C14.21 11.3534 13.7933 11.24 13.34 11.24C12.8866 11.24 12.47 11.3534 12.09 11.58C11.71 11.8067 11.4066 12.11 11.18 12.49C10.9533 12.87 10.84 13.2867 10.84 13.74V17.5H9.15998V9.16003H10.84V9.76003C10.84 9.93337 10.8933 10.09 11 10.23C11.1066 10.37 11.24 10.47 11.4 10.53C11.56 10.59 11.7266 10.5967 11.9 10.55C12.0733 10.5034 12.2133 10.4134 12.32 10.28C12.7066 9.80003 13.1966 9.47003 13.79 9.29003C14.3833 9.11003 14.97 9.12337 15.55 9.33003C16.13 9.5367 16.6 9.89337 16.96 10.4C17.32 10.9067 17.5 11.4667 17.5 12.08V17.5ZM5.83998 7.50003H2.49998C2.27331 7.50003 2.07665 7.58337 1.90998 7.75003C1.74331 7.9167 1.65998 8.11337 1.65998 8.34003V18.34C1.65998 18.5667 1.74331 18.76 1.90998 18.92C2.07665 19.08 2.27331 19.16 2.49998 19.16H5.83998C6.06665 19.16 6.25998 19.08 6.41998 18.92C6.57998 18.76 6.65998 18.5667 6.65998 18.34V8.34003C6.65998 8.11337 6.57998 7.9167 6.41998 7.75003C6.25998 7.58337 6.06665 7.50003 5.83998 7.50003ZM4.99998 17.5H3.33998V9.16003H4.99998V17.5ZM4.17998 1.28004C3.67331 1.2267 3.18998 1.31337 2.72998 1.54004C2.26998 1.7667 1.90665 2.0967 1.63998 2.53004C1.37331 2.96337 1.23665 3.4367 1.22998 3.95003C1.22331 4.46337 1.35331 4.9367 1.61998 5.37003C1.88665 5.80337 2.24665 6.1367 2.69998 6.37003C3.15331 6.60337 3.63331 6.70003 4.13998 6.66003H4.15998C4.66665 6.70003 5.14998 6.6067 5.60998 6.38003C6.06998 6.15337 6.43331 5.82337 6.69998 5.39003C6.96665 4.9567 7.09998 4.4867 7.09998 3.98003C7.09998 3.47337 6.96665 3.00337 6.69998 2.57003C6.43331 2.1367 6.07331 1.80337 5.61998 1.57003C5.16665 1.3367 4.68665 1.24003 4.17998 1.28004ZM4.15998 5.00003H4.13998C3.83331 5.04003 3.56331 4.9567 3.32998 4.75003C3.09665 4.54337 2.97998 4.2867 2.97998 3.98003C2.97998 3.67337 3.08998 3.4267 3.30998 3.24003C3.52998 3.05337 3.81998 2.96004 4.17998 2.96004C4.48665 2.92003 4.75665 3.00337 4.98998 3.21003C5.22331 3.4167 5.33998 3.67337 5.33998 3.98003C5.33998 4.2867 5.23331 4.53337 5.01998 4.72003C4.80665 4.9067 4.51998 5.00003 4.15998 5.00003Z" fill="#333333"/>
</svg>
