<svg width="24" height="26" viewBox="0 0 24 26" fill="none" xmlns="http://www.w3.org/2000/svg">
<path d="M4.99219 10C4.99219 10.9531 5.17188 11.8477 5.53125 12.6836C5.89062 13.5195 6.38281 14.2578 7.00781 14.8984V22C7.00781 22.2812 7.10547 22.5195 7.30078 22.7148C7.49609 22.9102 7.72656 23.0078 7.99219 23.0078C8.07031 23.0078 8.14844 22.9961 8.22656 22.9727C8.30469 22.9492 8.38281 22.9219 8.46094 22.8906H8.4375L12 21.1094L15.5625 22.8906C15.625 22.9219 15.6914 22.9492 15.7617 22.9727C15.832 22.9961 15.9141 23.0078 16.0078 23.0078C16.1016 23.0078 16.1914 22.9922 16.2773 22.9609C16.3633 22.9297 16.4453 22.8906 16.5234 22.8438C16.6797 22.75 16.7969 22.6289 16.875 22.4805C16.9531 22.332 16.9922 22.1719 16.9922 22V14.8984C17.6172 14.2578 18.1094 13.5195 18.4688 12.6836C18.8281 11.8477 19.0078 10.9531 19.0078 10C19.0078 9.03125 18.8203 8.125 18.4453 7.28125C18.0859 6.42188 17.5898 5.67578 16.957 5.04297C16.3242 4.41016 15.5781 3.91406 14.7188 3.55469C13.875 3.17969 12.9688 2.99219 12 2.99219C11.0312 2.99219 10.125 3.17969 9.28125 3.55469C8.42188 3.91406 7.67578 4.41016 7.04297 5.04297C6.41016 5.67578 5.91406 6.42188 5.55469 7.28125C5.17969 8.125 4.99219 9.03125 4.99219 10ZM12.4453 19.0938C12.3828 19.0625 12.3125 19.0391 12.2344 19.0234C12.1562 19.0078 12.0781 19 12 19C11.9219 19 11.8438 19.0078 11.7656 19.0234C11.6875 19.0391 11.6172 19.0703 11.5547 19.1172V19.0938L9 20.3828V16.3047C9.45312 16.5234 9.93359 16.6953 10.4414 16.8203C10.9492 16.9453 11.4688 17.0078 12 17.0078C12.5312 17.0078 13.0508 16.9453 13.5586 16.8203C14.0664 16.6953 14.5469 16.5234 15 16.3047V20.3828L12.4453 19.0938ZM12 5.00781C12.6875 5.00781 13.3359 5.13281 13.9453 5.38281C14.5547 5.64844 15.0859 6.00781 15.5391 6.46094C15.9922 6.91406 16.3516 7.44531 16.6172 8.05469C16.8672 8.66406 16.9922 9.3125 16.9922 10C16.9922 10.6875 16.8672 11.3359 16.6172 11.9453C16.3516 12.5547 15.9922 13.0859 15.5391 13.5391C15.0859 13.9922 14.5547 14.3438 13.9453 14.5938C13.3359 14.8594 12.6875 14.9922 12 14.9922C11.3125 14.9922 10.6641 14.8672 10.0547 14.6172C9.44531 14.3516 8.91406 13.9922 8.46094 13.5391C8.00781 13.0859 7.64844 12.5547 7.38281 11.9453C7.13281 11.3359 7.00781 10.6875 7.00781 10C7.00781 9.3125 7.14062 8.66406 7.40625 8.05469C7.65625 7.44531 8.00781 6.91406 8.46094 6.46094C8.91406 6.00781 9.44531 5.64844 10.0547 5.38281C10.6641 5.13281 11.3125 5.00781 12 5.00781Z" fill="#333333"/>
</svg>
