<svg width="20" height="20" viewBox="0 0 20 20" fill="none" xmlns="http://www.w3.org/2000/svg">
<path d="M13.8399 11.66C13.2399 11.3933 12.7666 11.1733 12.4199 11C12.2332 10.9066 12.0666 10.9333 11.9199 11.08C11.8666 11.1333 11.7399 11.2866 11.5399 11.54C11.4066 11.74 11.3132 11.8666 11.2599 11.92C11.1666 12.0666 11.0266 12.0933 10.8399 12C10.1466 11.68 9.58658 11.3466 9.15991 11C8.70658 10.52 8.31991 10.0466 7.99991 9.57997C7.95991 9.5133 7.94991 9.43997 7.96991 9.35997C7.98991 9.27997 8.02658 9.2133 8.07991 9.15997L8.15991 9.07997C8.25325 8.95996 8.33991 8.87996 8.41991 8.83996C8.52658 8.70663 8.57991 8.5933 8.57991 8.49996C8.61991 8.45996 8.63991 8.4033 8.63991 8.32996C8.63991 8.25663 8.61991 8.19997 8.57991 8.15997C8.53991 8.11997 8.43991 7.9133 8.27991 7.53996C8.13325 7.20663 8.01325 6.9133 7.91991 6.65996C7.87991 6.40663 7.81991 6.23997 7.73991 6.15996C7.68658 6.10663 7.60658 6.07996 7.49991 6.07996H7.07991C6.99991 6.07996 6.90658 6.10997 6.79991 6.16996C6.69325 6.22997 6.61991 6.28663 6.57991 6.33996C6.08658 6.8333 5.83991 7.4133 5.83991 8.07996C5.93325 8.91996 6.20658 9.63997 6.65991 10.24C7.61991 11.64 8.78658 12.6733 10.1599 13.34L10.4199 13.44C10.8199 13.6 11.1266 13.7 11.3399 13.74C11.5399 13.82 11.7432 13.8666 11.9499 13.88C12.1566 13.8933 12.3999 13.8766 12.6799 13.83C12.9599 13.7833 13.2199 13.6733 13.4599 13.5C13.6999 13.3266 13.9066 13.1066 14.0799 12.84C14.2399 12.5333 14.2666 12.2 14.1599 11.84L13.8399 11.66ZM15.9199 4.07996C14.8532 3.0133 13.5932 2.2933 12.1399 1.91996C10.7399 1.55997 9.33991 1.55997 7.93991 1.91996C6.48658 2.2933 5.22658 3.0133 4.15991 4.07996C3.27991 4.95996 2.63325 5.97997 2.21991 7.13997C1.81991 8.2733 1.66991 9.44663 1.76991 10.66C1.86991 11.8733 2.22658 13.0133 2.83991 14.08L1.65991 18.34L6.07991 17.16C7.31991 17.8266 8.62658 18.16 9.99991 18.16C11.5066 18.16 12.8999 17.7866 14.1799 17.04C15.4199 16.32 16.4066 15.34 17.1399 14.1C17.8866 12.82 18.2599 11.4266 18.2599 9.91996C18.2999 8.8533 18.1066 7.80663 17.6799 6.77997C17.2799 5.7933 16.6932 4.8933 15.9199 4.07996ZM13.6599 15.74C12.4999 16.4733 11.2799 16.84 9.99991 16.84C8.81325 16.84 7.64658 16.5333 6.49991 15.92L6.25991 15.74L3.65991 16.42L4.33991 13.92L4.15991 13.66C3.50658 12.5666 3.16658 11.4 3.13991 10.16C3.11325 8.95996 3.37991 7.82663 3.93991 6.75996C4.52658 5.6533 5.35325 4.75996 6.41991 4.07996C7.48658 3.39996 8.63325 3.04663 9.85991 3.01997C11.0466 2.97997 12.1732 3.24663 13.2399 3.81996C14.3066 4.3933 15.1699 5.20663 15.8299 6.25996C16.4899 7.3133 16.8399 8.45996 16.8799 9.69997C16.9199 10.9133 16.6666 12.0533 16.1199 13.12C15.5466 14.2133 14.7266 15.0866 13.6599 15.74Z" fill="#333333"/>
</svg>
